<svg xmlns="http://www.w3.org/2000/svg" version="1.1" xmlns:xlink="http://www.w3.org/1999/xlink" xmlns:svgjs="http://svgjs.dev/svgjs" width="1000" height="1200" preserveAspectRatio="none" viewBox="0 0 1000 1200">
    <g mask="url(&quot;#SvgjsMask1099&quot;)" fill="none">
        <rect width="1000" height="1200" x="0" y="0" fill="rgba(254, 249, 195, 1)"></rect>
        <path d="M0,534.542C96.484,514.927,161.511,431.157,234.922,365.546C297.077,309.995,357.976,255.04,395.829,180.769C434.919,104.071,456.013,20.72,454.533,-65.352C452.906,-160.015,437.551,-255.275,386.957,-335.3C331.552,-422.935,258.181,-511.824,157.255,-535.56C57.28,-559.072,-42.911,-504.476,-134.46,-457.929C-213.512,-417.736,-274.804,-355.434,-331.364,-287.129C-386.767,-220.222,-438.186,-150.332,-459.003,-65.995C-481.268,24.209,-478.677,117.644,-453.339,207.033C-424.91,307.325,-390.032,414.374,-305.533,475.419C-219.709,537.422,-103.756,555.635,0,534.542" fill="#fdf281"></path>
        <path d="M1000 1770.4180000000001C1105.875 1767.551 1151.755 1631.522 1236.453 1567.929 1312.842 1510.574 1430.127 1501.399 1472.394 1415.7350000000001 1514.745 1329.902 1475.451 1227.555 1449.909 1135.313 1426.9850000000001 1052.525 1384.204 980.452 1332.806 911.6220000000001 1277.719 837.851 1230.051 742.97 1140.614 721.113 1051.42 699.316 971.76 778.014 883.052 801.711 791.316 826.217 680.475 798.267 610.702 862.671 540.133 927.81 546.7850000000001 1038.131 525.473 1131.773 502.132 1234.329 431.981 1343.891 479.86800000000005 1437.536 527.953 1531.568 666.217 1524.029 755.172 1580.96 843.884 1637.7350000000001 894.715 1773.269 1000 1770.4180000000001" fill="#ffffff"></path>
    </g>
    <defs>
        <mask id="SvgjsMask1099">
            <rect width="1000" height="1200" fill="#ffffff"></rect>
        </mask>
    </defs>
</svg>