<!-- <svg xmlns="http://www.w3.org/2000/svg" version="1.1" xmlns:xlink="http://www.w3.org/1999/xlink" xmlns:svgjs="http://svgjs.dev/svgjs" viewBox="0 0 800 800"><defs><linearGradient x1="50%" y1="0%" x2="50%" y2="100%" id="ssscribble-grad"><stop stop-color="hsl(206, 75%, 49%)" stop-opacity="1" offset="0%"></stop><stop stop-color="hsl(331, 90%, 56%)" stop-opacity="1" offset="100%"></stop></linearGradient></defs><g fill="none" stroke-width="1.5" stroke="url(#ssscribble-grad)" stroke-linecap="round"><path d="M991.95 403.68C832.2 436.54 693.85 492.94 639.39 569.09 688.35 642.2 807.07 724.98 935.21 798.67 1025.93 840.55 1037.61 838.24 973.24 775.53 853.81 680.33 717.07 572.75 597.34 514.04 508.89 558.46 464.45 707.5 455.42 904.12 476.48 1031.69 508.52 1011.03 536.99 845.47 568.89 674.49 585.5 641.91 584.74 801.46 582.21 1020.59 564.17 1099.56 531.31 951.01 498.45 725.76 452.32 649.63 392.88 781.29 331.67 991.07 255.28 1077.61 166.43 974.73 81.02 764.84 -5.13 604.78 -76.84 585.1 -118.45 697.67 -121.2 846.74 -75.81 938.44 0.84 936.58 98.61 841.59 183.83 704.72 213.98 556.39 172.84 442.26 58.03 370.22 -94.19 330.24 -231.61 314.79 -293.25 304.65 -251.48 302.49 -119.79 288.35 39.95 255.49 140.55 222.63 135.65 172.62 37.23 112.81 -166.91 38.8 -158.27 44.73 43 172.42 173.71 258.65 257.57 306.48 287.45 265.3 267 130.54 216.92 -57.48 160.49 -204.28 80.1 -153.56 45.4 123.74 78.12 -151.3 108.26 -295.68 141.71 -226.27 174.57 -1.04 207.43 147.56 238.15 75.3 269.98 -131.13 306.29 -278.03 351.95 -226.79 413.59 -31.74 487.44 157.92 581.88 208.08 692.76 114.75 799.83 -47.65 897.1 -157.74 960.61 -159.12 973.8 -57.35 928.91 97.38 832.41 243.23 724.28 356.6 635.88 413.05 611.98 428.13 675.81 411.39 811.59 388.39 969.88 377.26 1080.99 363.06 1092.55 370.83 991.95 403.68Q991.95 403.68 991.95 403.68" opacity="0.94"></path><path d="M957.95 603.61C809.88 634.13 675.43 672.9 607.85 712.87 629.24 744.78 721.34 762.32 840.18 750.97 947.98 716.59 1000.59 647.59 986.83 557.34 914.26 490.15 803.57 466.06 683.99 522.26 569.96 654.93 483.07 830.09 426.92 970.45 397.92 998.98 390.45 896.09 392.74 719.57 406.06 603.05 415.23 636.5 413.75 817.43 413.56 1010.85 399.13 1061.95 368.62 917.01 338.1 705.07 292.95 612.05 235.6 703.9 179.53 899.21 114.85 1031.49 48.66 1006.4 -6.51 845.01 -49.29 655.49 -67.32 544.93 -58.19 555.84 -15.12 660.08 58.92 783.98 138.5 879.17 213.01 897.57 253.81 847.35 235.8 745.69 155.82 627.12 25.66 519.35 -115.54 418.36 -225.01 343.59 -258.17 290.48 -202.37 244.51 -74.11 208.77 73.95 178.26 170.71 147.75 177.58 123.9 99.98 112.31 -30.16 107.87 -152.2 127.13 -220.25 175.23 -216.87 230.11 -141.73 298.45 -23.89 353.09 109.26 356.3 222.81 294.11 298.87 158.94 333.87 -4.94 331.36 -145.37 306.62 -188.09 262.92 -109.32 221.24 52.82 191.45 191.86 163.91 194.62 153.41 45 158.89 -162.07 166.97 -265.74 187.05 -178.96 217.57 32.95 248.08 177.94 287.58 133.08 337.05 -48.54 389.11 -217.72 455.11 -233.84 535.54 -94.98 618.21 103.9 710.13 234.18 800.87 237.45 872.64 128.88 918.95 -10.1 923.94 -102.78 887.88 -119.02 810.5 -51.13 709.12 63.06 623.05 200.33 575.28 319.6 594.26 406.87 684.68 471.1 824.09 509.08 966.02 534.71 1055.4 552.3 1054.71 573.11 957.95 603.61Q957.95 603.61 957.95 603.61" opacity="0.50"></path><path d="M923.95 582.19C787.63 610.36 658.74 624.64 581.52 622.18 578.13 615.42 641.61 586.25 742.35 535.57 852.73 487.44 932.1 436.92 961.68 408.43 940.3 428.19 872.66 505 778.59 639.28 669.57 790.5 567.07 918.15 482.05 962.46 412.4 901.29 364.15 757.41 331.95 609.43 311.64 559.43 297.27 647.25 282.19 834.13 270.01 997.25 251.16 1023.08 223 883.01 194.83 685.15 158.68 579.55 117.73 632.81 79.7 801.26 42.82 957.87 14.33 1002.31 -2.27 913.52 -0.41 744.25 25.82 585.48 67.43 498.62 129.49 509.97 201.59 588.68 258.75 701.75 292.99 792.34 285.04 835.47 226.13 833.07 121.5 786.46 -9.51 717.85 -130.89 631.76 -210.4 550.47 -217.89 484.35 -151.54 418.16 -28.36 370.23 107.95 342.05 200.29 313.89 217.22 306.81 159.65 319.87 48.15 332.87 -70.72 362.92 -157.03 400.2 -191.36 420.01 -161.12 420.24 -80.68 379.25 32.22 292.72 150.01 161.7 251.37 11.72 329.52 -103.92 375.38 -148.68 394.34 -91.17 389.89 38.25 373.83 182.27 356.85 250.44 333.81 185.39 319.99 12.77 319.22 -166.56 318.42 -230.73 331.68 -130.88 359.84 66.95 388.01 207.07 429.75 187 483.67 34.77 537.57 -141.25 602.63 -213.07 674.48 -142.45 740.27 26.16 802.71 195.31 850.57 285.82 875.02 270.85 869.6 176.6 828.37 62.3 763.93 -35.06 679.54 -71.44 595.95 -47.79 544.84 24.1 539.85 121 594.83 217.94 701.79 317.44 836.71 397.84 959.07 457.72 1027.51 513.31 1016.29 554.03 923.95 582.19Q923.95 582.19 923.95 582.19" opacity="0.22"></path><path d="M889.95 362.7C765.45 388.52 643.61 394.99 560.24 384.85 535.77 377.05 570.78 359.12 647.38 341.93 747.52 343.57 837.73 367.72 897.26 429.03 920.8 523.66 901.18 650.08 848.09 784.46 769.34 883.97 679.92 921.76 592.67 872.79 506.87 759.08 434.5 620.64 376.73 529.15 326.41 545.09 287.15 670.5 255.3 849.18 226.15 979.37 199.52 982.97 173.7 849.01 147.88 665.94 124.1 552.09 104.55 569.82 87.71 702.7 80 862.09 85.58 957.59 98.6 946.89 128.45 835.64 174.46 681.72 221.91 539.1 274.26 459.15 319.17 450.45 338.42 503.93 327.43 585.87 277.01 663.6 190.6 731.25 77.23 764.79 -41.83 767.29 -137.35 749.29 -187.06 714.73 -172.55 675.97 -99.15 632.04 17.45 594.64 141.95 568.82 229.3 543 254.49 529.98 215.63 525.21 124.77 515.28 15.96 502.88 -78.26 476.14 -140.13 428.91 -150.48 352.85 -112.46 245.42 -35.53 127.9 63.27 8.89 164.9 -78.44 262.42 -103.6 340.91 -54.29 397.57 61.43 435.94 188.47 457.13 276.58 468.41 268.38 470.26 153.98 471.87 -20.09 478.75 -162.94 483.74 -190.68 498.1 -82.1 523.92 100.94 549.74 234.95 585.79 236.62 629.5 116.43 671.31 -52.29 716.67 -163.03 759.56 -160.07 793.03 -49.66 814.36 111.92 815.79 252.53 798.92 328.39 757.5 321.21 693.82 255.55 626.03 155.01 557.83 65.66 507.79 10.82 496.65 -10.69 530.16 7.67 610.95 50.77 724.11 112.7 847.61 177.61 948.44 234.1 997.26 292.93 977.3 336.88 889.95 362.7Q889.95 362.7 889.95 362.7" opacity="0.30"></path><path d="M855.9 183.75C743.24 207.22 629.8 225.48 543.71 242.36 502.52 264.05 511.26 293.55 560.79 339.16 640.93 399.55 726.92 483.43 799.96 588.58 854.19 693.97 875.87 793.52 866.4 861 830.78 875.28 775 827.6 709.5 723.85 635.25 606.22 563.67 511.1 500.05 487.56 437.61 557.74 385.36 701.49 343.55 860.21 303.01 956.85 270.99 941.68 247.52 815.02 212.98 634.6 274.77 911.67 329.31 788.32 358.63 648.02 380.72 520.38 385.57 434.59 364.27 398.45 314.77 410.02 236.1 449.66 138.61 510.84 31.58 567.81 -65.77 608.94 -132.5 644.21 -154.59 659.26 -122.46 657.45 -45.44 651.62 63.24 635.54 175.9 612.07 257.74 588.59 289.37 558.85 267.42 520.41 197.94 477.95 104.54 420.2 12.02 344.26 -65.49 262.45 -107.07 166.83 -108.67 69.47 -74.12 -6.34 -9.94 -51.61 70.2 -46.23 160.7 8.78 247.17 108.6 322.28 224.46 389.15 305.11 441.14 320.57 480.39 248.08 511.9 108.58 536.31 -47.99 557.67 -149.76 576.75 -145.69 597.15 -32.62 620.62 135.02 644.09 261.68 669.52 281.6 694.71 194.03 726.76 -20.83 739.85 -40.17 702.49 159.98 663.56 288.17 610.79 363.67 551.06 380.17 501.66 343.45 465.3 277.59 455.19 208.38 481.22 139.4 543.84 94.18 638.56 74.47 748.27 69.54 855.04 82.74 933.59 105.31 964.61 132.69 937.76 160.27 855.95 183.74Q855.9 183.75 855.9 183.75" opacity="0.47"></path><path d="M822.38 239.75C721.62 260.87 617.67 292.98 531.94 336.68 478.57 382.53 464.63 442.98 486.98 517.34 541.15 591.8 610.83 672.97 681.36 749.19 748.32 803.21 796.3 828.48 821.51 811.26 827.46 755.79 812.02 664.75 781.21 559.51 737.91 479.63 688.44 447.47 638.89 486.38 585.8 591.48 537.8 734.65 497.75 864.94 457.41 929.3 426 899.11 404.88 780.91 379.12 576.22 420.95 875.29 439.04 856.04 437.29 766.26 422.41 649.78 388.77 536.34 335.87 438.57 262.84 374.84 173.89 343.98 81.36 341.39 -7.26 357.23 -76.91 378.68 -114.75 408.83 -112.83 431.34 -67.61 440.88 9.95 450.78 109.62 445.78 210.38 424.65 285.96 403.54 321.89 367.29 314.37 317.56 265.56 268.19 190.93 207.25 108.14 140.48 26.96 82.43 -33.31 31.78 -65.21 1.8 -69.73 0.09 -45.22 33.48 0.77 103.55 63.93 189.3 134.66 280.74 204.84 348.54 276.46 361.8 340.14 310.9 393.82 198.74 444.17 59.21 485.36 -65.8 518.51 -126.13 550.18 -96.22 576.35 17.14 597.47 168.84 618.59 287.07 633.67 321.59 641.84 265.4 648.54 143.28 645.78 12.12 632.04 -77.5 614.97 -100.95 586.07 -49.85 547.02 52.01 509.39 179.26 468.99 295.35 433.52 378.51 415.21 423.42 415.75 428.48 442.27 407.01 496.16 363.35 575.39 316.97 672.05 279.12 770.33 241.37 856.98 219.36 913.94 213.34 929.61 209.48 897.96 218.62 822.38 239.75Q822.38 239.75 822.38 239.75" opacity="0.24"></path><path d="M787.89 470.12C698.85 488.9 605.43 520.34 523.32 562.1 463.09 602.41 432.01 649.49 430.45 697.32 457.36 735.74 503.5 763.99 558.89 772.48 621.11 759.23 676.7 718.24 719.85 650.19 753.52 573.14 770.6 492.5 772.77 429.68 764.56 408.77 745.93 437.93 721.26 520.51 691.56 638.12 660.78 764.73 632.26 861.85 602.59 896.94 577.54 855.62 558.76 746.95 539.98 611.62 528.37 497.98 522.62 441.66 515.72 456.71 512.35 531.64 509.5 636.37 501.64 744.93 489.34 821.38 468.61 850.22 437.5 830.98 393.47 769.42 335.18 683.94 267.42 584.22 189.57 490.71 107.79 413.62 32.85 350.18 -30.11 307.23 -70.79 280.14 -83 264.13 -62.6 254.9 -9.61 246.21 65.24 240.37 154.85 229.35 243.89 210.58 313.05 191.8 351.89 166.15 356.71 136.58 327.41 109.85 273.34 84.92 206.15 68.39 131.61 62.94 65.45 74.96 15.78 109.46 -17.61 157.61 -28.14 224.16 -18.26 299.28 8.41 360.14 48.48 399.44 95.67 399.12 150.01 350.73 204.12 257.44 253.96 135.12 304.73 16.63 348.73 -68.98 384.55 -91.28 420.1 -42.21 447.67 67.62 466.45 202.95 485.23 311.62 494.34 356.74 494.2 328.9 493.8 239.03 483.96 123.1 465.73 19.26 448.44 -49.55 425.25 -61.87 399.85 -21.41 381.6 60.96 368.48 163.85 366.4 265.52 381.12 358.18 413.91 426.12 466.86 468.31 536.07 488.76 619.07 491.44 707.37 485.56 820.71 463.81 874.59 448.72 787.94 470.11Q787.89 470.12 787.89 470.12" opacity="0.41"></path><path d="M753.94 624.09C594.19 656.95 454.95 690.81 392.55 697.68 417.94 673.99 498 586.68 582.38 455.92 663.59 377.23 702.79 404.74 703.83 577.88 689.84 783.57 659.66 861.55 626.8 712.94 593.94 487.71 561.51 407.32 518.55 512.49 460.56 701.61 370.07 805.65 245.8 779.1 118.35 654.84 3.43 506.17 -46.04 393 -7.72 294.69 118.19 235.08 277.94 202.22 378.54 169.36 378.5 166.35 298.73 207.72 173.26 263.94 71.75 361.33 25.98 442.52 26.43 426 72.47 287.1 133.29 73.9 206.49 -55.35 266.72 11.71 299.58 236.94 332.44 385.55 334.82 320.89 318.57 139.28 314.7 -9.76 319.95 -2.41 362.56 119.33 451.4 293.16 587.76 431.77 737.32 512.4 841.18 562.48 854.54 591.23 753.94 624.09Q753.94 624.09 753.94 624.09" opacity="0.87"></path><path d="M719.9 534.52C583.59 562.69 454.45 553.76 374.12 505.93 355.17 455.18 387.43 379.94 441.04 325.93 511.77 347.07 564.39 460.16 588.14 642.66 606.2 792.97 599.57 819.08 571.41 679.02 543.24 481.16 496.2 373.3 429.33 407.79 356.77 548.3 260.19 686.99 152.54 753.68 62.01 748.28 -0.11 680.13 -1.81 599.31 57.86 505.31 175.59 437.1 311.9 408.94 404.28 380.77 424.73 395.31 381.22 440.5 289.15 472.5 194.48 496.7 127.59 465.18 81.96 361.58 75.09 193.03 93.58 31.87 123.97 -23.28 159.12 73.11 187.28 270.95 215.46 411.06 233.97 396.4 252.39 266.75 282.71 104.88 333.53 21.65 416.07 37.43 519.87 128.35 644.42 247.55 757.14 347.11 821.31 443.76 812.29 506.35 719.95 534.51Q719.9 534.52 719.9 534.52" opacity="0.13"></path><path d="M685.9 298.72C573.25 322.19 459.9 314.68 374.06 289.28 324.88 277.41 314.19 277.82 328.42 320.77 364.85 411.82 400.66 551.26 421.82 697.65 444.59 785.49 446.19 771.67 422.72 645.02 399.25 477.37 352.93 358.82 289.48 335.45 227.65 403.93 155.2 513.61 88.01 608.44 43.01 681.99 28.8 705.04 60.78 693.16 129.41 663.91 233.25 629.36 345.9 605.89 427.74 582.42 461.72 572.25 449.16 560.82 395.26 532.03 326.31 472.34 264.9 368.04 174.5 128.99 230.67 443.33 291.88 384.39 343.03 255.2 414.85 140.65 505.29 80.35 597.46 68.16 691.32 104.38 762.43 156.93 792.21 223.01 767.76 275.24 685.95 298.71Q685.9 298.72 685.9 298.72" opacity="0.31"></path><path d="M652.12 172.96C563.11 191.74 469.94 211.01 389.86 238.37 327.29 276.25 288.2 338.55 269.26 429.59 267.18 530.98 272.66 641.3 275.98 727.26 283.44 758.84 280.25 719.61 261.47 610.97 242.69 475.63 210.1 362.19 170.11 302.78 134.24 303.26 99.45 349.89 76.92 412.72 71.26 488.51 90.43 545.27 139.23 574.22 205.55 597.21 291.11 597.75 380.12 578.97 449.2 560.2 489.38 523.87 499.38 468.34 480.32 406.86 444.75 320.79 406.14 220.38 359.92 132.94 324.61 66.4 306.39 52.15 289.11 97.8 289.14 203.63 307.92 338.97 326.7 447.61 362.45 494.45 412.26 476.64 463.03 404.44 527.64 314.04 598.47 237.26 689.44 154.33 737.49 145.93 652.12 172.96Q652.12 172.96 652.12 172.96" opacity="0.80"></path><path d="M617.9 294.05C481.59 322.21 352 427.1 273.34 576.57 227.66 690.09 204.06 717.08 175.89 577.02 147.72 379.14 120.32 267.1 129.09 264.76 170.83 333.78 277.59 385.71 413.9 357.54 519.94 277.91 460.22 130.54 475.49 373.02 503.66 513.08 580.46 508.93 663.48 432.32 714.76 319.76 710.28 265.88 617.9 294.05Q617.9 294.05 617.9 294.05" opacity="0.66"></path><path d="M583.95 530.25C401.23 567.81 249.66 694.93 212.11 543.01 174.55 293.79 265.23 219.76 447.95 182.2 554.46 144.65 564.16 157.79 601.72 407.01 639.27 558.93 690.46 492.7 583.95 530.25Q583.95 530.25 583.95 530.25" opacity="0.77"></path></g></svg> -->
<!-- <svg xmlns="http://www.w3.org/2000/svg" version="1.1" xmlns:xlink="http://www.w3.org/1999/xlink" xmlns:svgjs="http://svgjs.dev/svgjs" viewBox="0 0 800 800"><circle r="10" cx="329" cy="429" fill="hsl(301, 75%, 70%)" opacity="0.33"></circle><circle r="11.5" cx="18" cy="388" fill="hsl(237, 75%, 70%)" opacity="0.84"></circle><circle r="11.5" cx="229" cy="574" fill="hsl(203, 75%, 70%)" opacity="0.79"></circle><circle r="11" cx="21" cy="516" fill="hsl(237, 75%, 70%)" opacity="0.88"></circle><circle r="8" cx="684" cy="328" fill="hsl(199, 75%, 70%)" opacity="0.59"></circle><circle r="7.5" cx="567" cy="347" fill="hsl(221, 75%, 70%)" opacity="0.29"></circle><circle r="13" cx="286" cy="261" fill="hsl(251, 75%, 70%)" opacity="0.33"></circle><circle r="9" cx="485" cy="310" fill="hsl(296, 75%, 70%)" opacity="0.45"></circle><circle r="13.5" cx="170" cy="224" fill="hsl(175, 75%, 70%)" opacity="0.35"></circle><circle r="9" cx="504" cy="351" fill="hsl(273, 75%, 70%)" opacity="0.85"></circle><circle r="9.5" cx="26" cy="481" fill="hsl(233, 75%, 70%)" opacity="0.53"></circle><circle r="4" cx="792" cy="379" fill="hsl(202, 75%, 70%)" opacity="0.73"></circle><circle r="8" cx="584" cy="388" fill="hsl(213, 75%, 70%)" opacity="0.26"></circle><circle r="8.5" cx="574" cy="463" fill="hsl(221, 75%, 70%)" opacity="0.47"></circle><circle r="11" cx="729" cy="392" fill="hsl(202, 75%, 70%)" opacity="0.18"></circle><circle r="7" cx="440" cy="581" fill="hsl(323, 75%, 70%)" opacity="0.26"></circle><circle r="15" cx="353" cy="498" fill="hsl(320, 75%, 70%)" opacity="0.23"></circle><circle r="9" cx="488" cy="179" fill="hsl(276, 75%, 70%)" opacity="0.62"></circle><circle r="10.5" cx="423" cy="186" fill="hsl(325, 75%, 70%)" opacity="0.98"></circle><circle r="11.5" cx="622" cy="571" fill="hsl(199, 75%, 70%)" opacity="0.47"></circle><circle r="7.5" cx="338" cy="15" fill="hsl(254, 75%, 70%)" opacity="0.42"></circle><circle r="9.5" cx="651" cy="540" fill="hsl(197, 75%, 70%)" opacity="0.45"></circle><circle r="8.5" cx="55" cy="378" fill="hsl(221, 75%, 70%)" opacity="0.95"></circle><circle r="11" cx="269" cy="358" fill="hsl(238, 75%, 70%)" opacity="0.72"></circle><circle r="6.5" cx="638" cy="328" fill="hsl(197, 75%, 70%)" opacity="0.76"></circle><circle r="15.5" cx="558" cy="517" fill="hsl(229, 75%, 70%)" opacity="0.96"></circle><circle r="11" cx="457" cy="122" fill="hsl(245, 75%, 70%)" opacity="0.27"></circle><circle r="10" cx="690" cy="160" fill="hsl(241, 75%, 70%)" opacity="0.69"></circle><circle r="12" cx="777" cy="315" fill="hsl(202, 75%, 70%)" opacity="0.36"></circle><circle r="10.5" cx="28" cy="745" fill="hsl(233, 75%, 70%)" opacity="0.76"></circle><circle r="11.5" cx="649" cy="674" fill="hsl(197, 75%, 70%)" opacity="0.49"></circle><circle r="11.5" cx="454" cy="528" fill="hsl(315, 75%, 70%)" opacity="0.96"></circle><circle r="8" cx="606" cy="339" fill="hsl(202, 75%, 70%)" opacity="0.55"></circle><circle r="4" cx="295" cy="16" fill="hsl(235, 75%, 70%)" opacity="0.96"></circle><circle r="6" cx="775" cy="363" fill="hsl(202, 75%, 70%)" opacity="0.28"></circle><circle r="10" cx="741" cy="659" fill="hsl(202, 75%, 70%)" opacity="0.27"></circle><circle r="10.5" cx="596" cy="421" fill="hsl(207, 75%, 70%)" opacity="0.70"></circle><circle r="10" cx="562" cy="297" fill="hsl(229, 75%, 70%)" opacity="0.89"></circle><circle r="13.5" cx="506" cy="737" fill="hsl(273, 75%, 70%)" opacity="0.26"></circle><circle r="7" cx="121" cy="441" fill="hsl(187, 75%, 70%)" opacity="0.97"></circle><circle r="17" cx="367" cy="620" fill="hsl(326, 75%, 70%)" opacity="0.53"></circle><circle r="7.5" cx="120" cy="394" fill="hsl(187, 75%, 70%)" opacity="0.14"></circle><circle r="10.5" cx="556" cy="197" fill="hsl(229, 75%, 70%)" opacity="0.36"></circle><circle r="9" cx="628" cy="715" fill="hsl(197, 75%, 70%)" opacity="0.60"></circle><circle r="8" cx="597" cy="542" fill="hsl(207, 75%, 70%)" opacity="0.67"></circle><circle r="7" cx="538" cy="170" fill="hsl(230, 75%, 70%)" opacity="0.99"></circle><circle r="8.5" cx="473" cy="18" fill="hsl(162, 75%, 70%)" opacity="0.27"></circle><circle r="6.5" cx="766" cy="394" fill="hsl(202, 75%, 70%)" opacity="0.31"></circle><circle r="11.5" cx="198" cy="320" fill="hsl(180, 75%, 70%)" opacity="0.66"></circle><circle r="9.5" cx="583" cy="265" fill="hsl(213, 75%, 70%)" opacity="0.18"></circle><circle r="11.5" cx="774" cy="51" fill="hsl(296, 75%, 70%)" opacity="0.78"></circle><circle r="16.5" cx="403" cy="669" fill="hsl(334, 75%, 70%)" opacity="0.75"></circle><circle r="11.5" cx="723" cy="512" fill="hsl(201, 75%, 70%)" opacity="0.55"></circle><circle r="6" cx="94" cy="446" fill="hsl(200, 75%, 70%)" opacity="0.75"></circle><circle r="12.5" cx="751" cy="455" fill="hsl(202, 75%, 70%)" opacity="0.12"></circle><circle r="14.5" cx="531" cy="556" fill="hsl(250, 75%, 70%)" opacity="0.65"></circle><circle r="11" cx="356" cy="374" fill="hsl(320, 75%, 70%)" opacity="0.35"></circle><circle r="14" cx="693" cy="464" fill="hsl(200, 75%, 70%)" opacity="0.19"></circle><circle r="8.5" cx="332" cy="70" fill="hsl(256, 75%, 70%)" opacity="0.48"></circle><circle r="13" cx="64" cy="695" fill="hsl(215, 75%, 70%)" opacity="0.57"></circle><circle r="13.5" cx="543" cy="628" fill="hsl(239, 75%, 70%)" opacity="0.48"></circle><circle r="14" cx="291" cy="216" fill="hsl(265, 75%, 70%)" opacity="0.14"></circle><circle r="5.5" cx="656" cy="339" fill="hsl(197, 75%, 70%)" opacity="0.26"></circle><circle r="9.5" cx="687" cy="539" fill="hsl(199, 75%, 70%)" opacity="0.49"></circle><circle r="13" cx="628" cy="73" fill="hsl(218, 75%, 70%)" opacity="0.77"></circle><circle r="10.5" cx="243" cy="181" fill="hsl(217, 75%, 70%)" opacity="0.16"></circle><circle r="7" cx="476" cy="614" fill="hsl(296, 75%, 70%)" opacity="0.93"></circle><circle r="14" cx="486" cy="777" fill="hsl(296, 75%, 70%)" opacity="0.20"></circle><circle r="11.5" cx="300" cy="175" fill="hsl(266, 75%, 70%)" opacity="0.19"></circle><circle r="9.5" cx="278" cy="402" fill="hsl(251, 75%, 70%)" opacity="0.60"></circle><circle r="10.5" cx="641" cy="264" fill="hsl(197, 75%, 70%)" opacity="0.32"></circle><circle r="15.5" cx="364" cy="90" fill="hsl(268, 75%, 70%)" opacity="0.50"></circle><circle r="13.5" cx="63" cy="310" fill="hsl(215, 75%, 70%)" opacity="0.36"></circle><circle r="9.5" cx="507" cy="384" fill="hsl(273, 75%, 70%)" opacity="0.53"></circle><circle r="9.5" cx="450" cy="461" fill="hsl(315, 75%, 70%)" opacity="0.14"></circle><circle r="9.5" cx="701" cy="364" fill="hsl(200, 75%, 70%)" opacity="0.40"></circle><circle r="7.5" cx="506" cy="139" fill="hsl(235, 75%, 70%)" opacity="0.14"></circle><circle r="10.5" cx="625" cy="178" fill="hsl(206, 75%, 70%)" opacity="0.17"></circle><circle r="10.5" cx="513" cy="197" fill="hsl(262, 75%, 70%)" opacity="0.75"></circle><circle r="10.5" cx="457" cy="203" fill="hsl(315, 75%, 70%)" opacity="0.13"></circle><circle r="10" cx="305" cy="350" fill="hsl(277, 75%, 70%)" opacity="0.85"></circle><circle r="10" cx="307" cy="94" fill="hsl(253, 75%, 70%)" opacity="0.81"></circle><circle r="11" cx="445" cy="633" fill="hsl(323, 75%, 70%)" opacity="0.96"></circle><circle r="11.5" cx="453" cy="256" fill="hsl(315, 75%, 70%)" opacity="0.90"></circle><circle r="8" cx="699" cy="54" fill="hsl(266, 75%, 70%)" opacity="0.33"></circle><circle r="14.5" cx="424" cy="438" fill="hsl(333, 75%, 70%)" opacity="0.42"></circle><circle r="11" cx="422" cy="242" fill="hsl(333, 75%, 70%)" opacity="0.17"></circle><circle r="8.5" cx="141" cy="320" fill="hsl(178, 75%, 70%)" opacity="0.15"></circle><circle r="13" cx="480" cy="227" fill="hsl(296, 75%, 70%)" opacity="0.10"></circle><circle r="12.5" cx="196" cy="419" fill="hsl(180, 75%, 70%)" opacity="0.15"></circle><circle r="14" cx="106" cy="750" fill="hsl(194, 75%, 70%)" opacity="0.54"></circle><circle r="13" cx="92" cy="85" fill="hsl(168, 75%, 70%)" opacity="0.19"></circle><circle r="15.5" cx="177" cy="164" fill="hsl(181, 75%, 70%)" opacity="0.21"></circle><circle r="7" cx="449" cy="603" fill="hsl(323, 75%, 70%)" opacity="0.90"></circle><circle r="12.5" cx="236" cy="137" fill="hsl(201, 75%, 70%)" opacity="0.97"></circle><circle r="10.5" cx="458" cy="287" fill="hsl(315, 75%, 70%)" opacity="0.23"></circle><circle r="9" cx="48" cy="458" fill="hsl(227, 75%, 70%)" opacity="0.79"></circle><circle r="12.5" cx="244" cy="292" fill="hsl(213, 75%, 70%)" opacity="0.47"></circle><circle r="13.5" cx="729" cy="568" fill="hsl(202, 75%, 70%)" opacity="0.89"></circle><circle r="9.5" cx="208" cy="532" fill="hsl(186, 75%, 70%)" opacity="0.11"></circle><circle r="9" cx="542" cy="105" fill="hsl(191, 75%, 70%)" opacity="0.40"></circle><circle r="8" cx="544" cy="18" fill="hsl(125, 75%, 70%)" opacity="0.25"></circle><circle r="11.5" cx="392" cy="257" fill="hsl(334, 75%, 70%)" opacity="0.41"></circle><circle r="7" cx="637" cy="363" fill="hsl(197, 75%, 70%)" opacity="0.28"></circle><circle r="8" cx="173" cy="365" fill="hsl(175, 75%, 70%)" opacity="0.92"></circle><circle r="13" cx="197" cy="101" fill="hsl(164, 75%, 70%)" opacity="0.63"></circle><circle r="10" cx="529" cy="229" fill="hsl(250, 75%, 70%)" opacity="0.93"></circle><circle r="11" cx="707" cy="614" fill="hsl(200, 75%, 70%)" opacity="0.70"></circle><circle r="12.5" cx="88" cy="193" fill="hsl(200, 75%, 70%)" opacity="0.60"></circle><circle r="14.5" cx="760" cy="772" fill="hsl(202, 75%, 70%)" opacity="0.40"></circle><circle r="7" cx="288" cy="325" fill="hsl(265, 75%, 70%)" opacity="0.12"></circle><circle r="14" cx="587" cy="601" fill="hsl(213, 75%, 70%)" opacity="0.73"></circle><circle r="21.5" cx="53" cy="614" fill="hsl(221, 75%, 70%)" opacity="0.23"></circle><circle r="11" cx="450" cy="492" fill="hsl(315, 75%, 70%)" opacity="0.98"></circle><circle r="8" cx="192" cy="55" fill="hsl(132, 75%, 70%)" opacity="0.88"></circle><circle r="13" cx="407" cy="24" fill="hsl(220, 75%, 70%)" opacity="0.95"></circle><circle r="10.5" cx="781" cy="196" fill="hsl(202, 75%, 70%)" opacity="0.88"></circle><circle r="19.5" cx="40" cy="134" fill="hsl(256, 75%, 70%)" opacity="0.31"></circle><circle r="8.5" cx="123" cy="543" fill="hsl(187, 75%, 70%)" opacity="0.46"></circle><circle r="15" cx="373" cy="148" fill="hsl(302, 75%, 70%)" opacity="0.74"></circle><circle r="8" cx="599" cy="479" fill="hsl(207, 75%, 70%)" opacity="0.53"></circle><circle r="16" cx="410" cy="607" fill="hsl(334, 75%, 70%)" opacity="0.95"></circle><circle r="12.5" cx="617" cy="776" fill="hsl(199, 75%, 70%)" opacity="0.25"></circle><circle r="7" cx="123" cy="787" fill="hsl(187, 75%, 70%)" opacity="0.69"></circle><circle r="11.5" cx="339" cy="345" fill="hsl(311, 75%, 70%)" opacity="0.93"></circle><circle r="8.5" cx="549" cy="396" fill="hsl(239, 75%, 70%)" opacity="0.46"></circle><circle r="16" cx="282" cy="721" fill="hsl(251, 75%, 70%)" opacity="0.64"></circle><circle r="9" cx="122" cy="134" fill="hsl(187, 75%, 70%)" opacity="0.42"></circle><circle r="9.5" cx="291" cy="126" fill="hsl(257, 75%, 70%)" opacity="0.58"></circle><circle r="10.5" cx="584" cy="171" fill="hsl(215, 75%, 70%)" opacity="0.29"></circle><circle r="8" cx="113" cy="164" fill="hsl(195, 75%, 70%)" opacity="0.70"></circle><circle r="9.5" cx="232" cy="56" fill="hsl(169, 75%, 70%)" opacity="0.57"></circle><circle r="10" cx="239" cy="337" fill="hsl(213, 75%, 70%)" opacity="0.83"></circle><circle r="10" cx="700" cy="198" fill="hsl(200, 75%, 70%)" opacity="0.14"></circle><circle r="8" cx="708" cy="235" fill="hsl(200, 75%, 70%)" opacity="0.89"></circle><circle r="14" cx="774" cy="251" fill="hsl(202, 75%, 70%)" opacity="0.53"></circle><circle r="7.5" cx="116" cy="508" fill="hsl(187, 75%, 70%)" opacity="0.83"></circle><circle r="14" cx="680" cy="410" fill="hsl(199, 75%, 70%)" opacity="0.27"></circle><circle r="9" cx="43" cy="413" fill="hsl(227, 75%, 70%)" opacity="0.26"></circle><circle r="6.5" cx="693" cy="258" fill="hsl(200, 75%, 70%)" opacity="0.61"></circle><circle r="15.5" cx="343" cy="186" fill="hsl(309, 75%, 70%)" opacity="0.68"></circle><circle r="10.5" cx="146" cy="102" fill="hsl(159, 75%, 70%)" opacity="0.83"></circle><circle r="9" cx="662" cy="194" fill="hsl(197, 75%, 70%)" opacity="0.11"></circle><circle r="12.5" cx="589" cy="686" fill="hsl(207, 75%, 70%)" opacity="0.54"></circle><circle r="11.5" cx="33" cy="82" fill="hsl(240, 75%, 70%)" opacity="0.58"></circle><circle r="13.5" cx="726" cy="24" fill="hsl(271, 75%, 70%)" opacity="0.98"></circle><circle r="5.5" cx="556" cy="368" fill="hsl(229, 75%, 70%)" opacity="0.82"></circle><circle r="12" cx="362" cy="39" fill="hsl(252, 75%, 70%)" opacity="0.36"></circle><circle r="11.5" cx="268" cy="542" fill="hsl(238, 75%, 70%)" opacity="0.35"></circle><circle r="16.5" cx="465" cy="718" fill="hsl(306, 75%, 70%)" opacity="0.33"></circle><circle r="14" cx="406" cy="478" fill="hsl(334, 75%, 70%)" opacity="0.30"></circle><circle r="9.5" cx="304" cy="616" fill="hsl(277, 75%, 70%)" opacity="0.15"></circle><circle r="13.5" cx="369" cy="781" fill="hsl(326, 75%, 70%)" opacity="0.52"></circle><circle r="12" cx="346" cy="311" fill="hsl(311, 75%, 70%)" opacity="0.82"></circle><circle r="12" cx="231" cy="221" fill="hsl(203, 75%, 70%)" opacity="0.12"></circle><circle r="6.5" cx="489" cy="334" fill="hsl(285, 75%, 70%)" opacity="0.86"></circle><circle r="11" cx="667" cy="587" fill="hsl(198, 75%, 70%)" opacity="0.99"></circle><circle r="9.5" cx="171" cy="525" fill="hsl(175, 75%, 70%)" opacity="0.96"></circle><circle r="18" cx="351" cy="723" fill="hsl(320, 75%, 70%)" opacity="0.73"></circle><circle r="12" cx="59" cy="778" fill="hsl(221, 75%, 70%)" opacity="0.42"></circle><circle r="10" cx="745" cy="280" fill="hsl(202, 75%, 70%)" opacity="0.54"></circle><circle r="13" cx="776" cy="586" fill="hsl(202, 75%, 70%)" opacity="0.38"></circle><circle r="15.5" cx="403" cy="714" fill="hsl(334, 75%, 70%)" opacity="0.96"></circle><circle r="9.5" cx="153" cy="432" fill="hsl(176, 75%, 70%)" opacity="0.11"></circle><circle r="10.5" cx="304" cy="54" fill="hsl(243, 75%, 70%)" opacity="0.91"></circle><circle r="16.5" cx="24" cy="202" fill="hsl(237, 75%, 70%)" opacity="0.16"></circle><circle r="11.5" cx="465" cy="372" fill="hsl(306, 75%, 70%)" opacity="0.88"></circle><circle r="7.5" cx="523" cy="46" fill="hsl(145, 75%, 70%)" opacity="0.71"></circle><circle r="10" cx="104" cy="327" fill="hsl(194, 75%, 70%)" opacity="0.63"></circle><circle r="10.5" cx="250" cy="23" fill="hsl(194, 75%, 70%)" opacity="0.57"></circle><circle r="6.5" cx="155" cy="565" fill="hsl(176, 75%, 70%)" opacity="0.63"></circle><circle r="8" cx="304" cy="394" fill="hsl(277, 75%, 70%)" opacity="0.58"></circle><circle r="10" cx="207" cy="365" fill="hsl(186, 75%, 70%)" opacity="0.42"></circle><circle r="10" cx="774" cy="15" fill="hsl(283, 75%, 70%)" opacity="0.56"></circle><circle r="10" cx="158" cy="598" fill="hsl(176, 75%, 70%)" opacity="0.40"></circle><circle r="13.5" cx="430" cy="314" fill="hsl(329, 75%, 70%)" opacity="0.19"></circle><circle r="10.5" cx="230" cy="634" fill="hsl(203, 75%, 70%)" opacity="0.95"></circle><circle r="10.5" cx="770" cy="156" fill="hsl(250, 75%, 70%)" opacity="0.73"></circle><circle r="6" cx="143" cy="369" fill="hsl(178, 75%, 70%)" opacity="0.91"></circle><circle r="11" cx="779" cy="679" fill="hsl(202, 75%, 70%)" opacity="1.00"></circle><circle r="9" cx="247" cy="492" fill="hsl(213, 75%, 70%)" opacity="0.70"></circle><circle r="13" cx="23" cy="568" fill="hsl(237, 75%, 70%)" opacity="0.57"></circle><circle r="10.5" cx="644" cy="488" fill="hsl(197, 75%, 70%)" opacity="0.61"></circle><circle r="13" cx="211" cy="468" fill="hsl(186, 75%, 70%)" opacity="0.27"></circle><circle r="11.5" cx="425" cy="349" fill="hsl(329, 75%, 70%)" opacity="0.74"></circle><circle r="7.5" cx="543" cy="787" fill="hsl(239, 75%, 70%)" opacity="0.80"></circle><circle r="14" cx="710" cy="88" fill="hsl(281, 75%, 70%)" opacity="0.36"></circle><circle r="11" cx="135" cy="254" fill="hsl(182, 75%, 70%)" opacity="0.64"></circle><circle r="12" cx="19" cy="689" fill="hsl(237, 75%, 70%)" opacity="0.46"></circle><circle r="11.5" cx="670" cy="99" fill="hsl(259, 75%, 70%)" opacity="0.79"></circle><circle r="7" cx="76" cy="464" fill="hsl(208, 75%, 70%)" opacity="0.46"></circle><circle r="11.5" cx="238" cy="396" fill="hsl(213, 75%, 70%)" opacity="0.22"></circle><circle r="10" cx="636" cy="130" fill="hsl(230, 75%, 70%)" opacity="0.18"></circle><circle r="8.5" cx="677" cy="505" fill="hsl(199, 75%, 70%)" opacity="0.68"></circle><circle r="16.5" cx="376" cy="563" fill="hsl(331, 75%, 70%)" opacity="0.38"></circle><circle r="9" cx="494" cy="415" fill="hsl(285, 75%, 70%)" opacity="0.49"></circle><circle r="11" cx="775" cy="120" fill="hsl(283, 75%, 70%)" opacity="0.91"></circle><circle r="15" cx="393" cy="298" fill="hsl(334, 75%, 70%)" opacity="0.36"></circle><circle r="15.5" cx="525" cy="678" fill="hsl(250, 75%, 70%)" opacity="0.29"></circle><circle r="11.5" cx="260" cy="90" fill="hsl(209, 75%, 70%)" opacity="0.49"></circle><circle r="9.5" cx="387" cy="391" fill="hsl(331, 75%, 70%)" opacity="0.81"></circle><circle r="15" cx="340" cy="234" fill="hsl(311, 75%, 70%)" opacity="0.64"></circle><circle r="14.5" cx="330" cy="587" fill="hsl(301, 75%, 70%)" opacity="0.38"></circle><circle r="11.5" cx="16" cy="437" fill="hsl(237, 75%, 70%)" opacity="0.72"></circle><circle r="11" cx="434" cy="785" fill="hsl(329, 75%, 70%)" opacity="0.25"></circle><circle r="9" cx="291" cy="298" fill="hsl(265, 75%, 70%)" opacity="0.49"></circle><circle r="7" cx="656" cy="726" fill="hsl(197, 75%, 70%)" opacity="0.16"></circle><circle r="17.5" cx="336" cy="670" fill="hsl(301, 75%, 70%)" opacity="0.98"></circle><circle r="9.5" cx="325" cy="384" fill="hsl(301, 75%, 70%)" opacity="0.71"></circle><circle r="9" cx="500" cy="577" fill="hsl(285, 75%, 70%)" opacity="0.96"></circle><circle r="15.5" cx="417" cy="80" fill="hsl(237, 75%, 70%)" opacity="0.35"></circle><circle r="13" cx="761" cy="86" fill="hsl(296, 75%, 70%)" opacity="0.34"></circle><circle r="6" cx="474" cy="573" fill="hsl(306, 75%, 70%)" opacity="0.48"></circle><circle r="9" cx="681" cy="644" fill="hsl(199, 75%, 70%)" opacity="0.26"></circle><circle r="8" cx="553" cy="761" fill="hsl(229, 75%, 70%)" opacity="0.63"></circle><circle r="6" cx="63" cy="436" fill="hsl(215, 75%, 70%)" opacity="0.29"></circle><circle r="12" cx="346" cy="274" fill="hsl(311, 75%, 70%)" opacity="0.16"></circle><circle r="12" cx="588" cy="735" fill="hsl(207, 75%, 70%)" opacity="0.66"></circle><circle r="10" cx="621" cy="299" fill="hsl(199, 75%, 70%)" opacity="0.36"></circle><circle r="12" cx="276" cy="587" fill="hsl(251, 75%, 70%)" opacity="0.81"></circle><circle r="9.5" cx="266" cy="650" fill="hsl(238, 75%, 70%)" opacity="0.27"></circle><circle r="15.5" cx="72" cy="539" fill="hsl(215, 75%, 70%)" opacity="0.71"></circle><circle r="9.5" cx="345" cy="405" fill="hsl(311, 75%, 70%)" opacity="0.35"></circle><circle r="14" cx="412" cy="128" fill="hsl(287, 75%, 70%)" opacity="0.82"></circle><circle r="8" cx="688" cy="700" fill="hsl(200, 75%, 70%)" opacity="0.25"></circle><circle r="9.5" cx="710" cy="676" fill="hsl(200, 75%, 70%)" opacity="0.28"></circle><circle r="12.5" cx="546" cy="720" fill="hsl(239, 75%, 70%)" opacity="0.10"></circle><circle r="8.5" cx="77" cy="494" fill="hsl(208, 75%, 70%)" opacity="0.21"></circle><circle r="9.5" cx="565" cy="132" fill="hsl(207, 75%, 70%)" opacity="0.82"></circle><circle r="12.5" cx="330" cy="134" fill="hsl(283, 75%, 70%)" opacity="0.93"></circle><circle r="10" cx="192" cy="762" fill="hsl(180, 75%, 70%)" opacity="0.48"></circle><circle r="12.5" cx="120" cy="621" fill="hsl(187, 75%, 70%)" opacity="0.19"></circle><circle r="10.5" cx="739" cy="205" fill="hsl(202, 75%, 70%)" opacity="0.44"></circle><circle r="15.5" cx="496" cy="489" fill="hsl(285, 75%, 70%)" opacity="0.30"></circle><circle r="9.5" cx="298" cy="656" fill="hsl(265, 75%, 70%)" opacity="0.42"></circle><circle r="8" cx="583" cy="319" fill="hsl(213, 75%, 70%)" opacity="0.42"></circle><circle r="10" cx="649" cy="29" fill="hsl(201, 75%, 70%)" opacity="0.43"></circle><circle r="10" cx="769" cy="630" fill="hsl(202, 75%, 70%)" opacity="0.57"></circle><circle r="9.5" cx="497" cy="268" fill="hsl(285, 75%, 70%)" opacity="0.11"></circle><circle r="14" cx="774" cy="519" fill="hsl(202, 75%, 70%)" opacity="0.69"></circle><circle r="11" cx="499" cy="630" fill="hsl(285, 75%, 70%)" opacity="0.80"></circle><circle r="16" cx="399" cy="523" fill="hsl(334, 75%, 70%)" opacity="0.33"></circle><circle r="10" cx="555" cy="428" fill="hsl(229, 75%, 70%)" opacity="0.38"></circle><circle r="11.5" cx="16" cy="283" fill="hsl(237, 75%, 70%)" opacity="0.94"></circle><circle r="7.5" cx="523" cy="278" fill="hsl(262, 75%, 70%)" opacity="0.90"></circle><circle r="12.5" cx="263" cy="440" fill="hsl(238, 75%, 70%)" opacity="0.57"></circle><circle r="14" cx="416" cy="756" fill="hsl(333, 75%, 70%)" opacity="0.30"></circle><circle r="7.5" cx="452" cy="557" fill="hsl(315, 75%, 70%)" opacity="0.72"></circle><circle r="15" cx="461" cy="669" fill="hsl(315, 75%, 70%)" opacity="0.47"></circle><circle r="6.5" cx="122" cy="360" fill="hsl(187, 75%, 70%)" opacity="0.62"></circle><circle r="12" cx="93" cy="256" fill="hsl(200, 75%, 70%)" opacity="0.89"></circle><circle r="10" cx="601" cy="130" fill="hsl(218, 75%, 70%)" opacity="0.67"></circle><circle r="8" cx="600" cy="208" fill="hsl(207, 75%, 70%)" opacity="0.90"></circle><circle r="8.5" cx="475" cy="154" fill="hsl(275, 75%, 70%)" opacity="0.24"></circle><circle r="7.5" cx="519" cy="77" fill="hsl(174, 75%, 70%)" opacity="0.78"></circle><circle r="11" cx="328" cy="526" fill="hsl(301, 75%, 70%)" opacity="0.76"></circle><circle r="11" cx="168" cy="290" fill="hsl(175, 75%, 70%)" opacity="0.66"></circle><circle r="6" cx="681" cy="281" fill="hsl(199, 75%, 70%)" opacity="0.63"></circle><circle r="5" cx="130" cy="15" fill="hsl(78, 75%, 70%)" opacity="0.89"></circle><circle r="15.5" cx="237" cy="768" fill="hsl(203, 75%, 70%)" opacity="0.95"></circle><circle r="14" cx="454" cy="410" fill="hsl(315, 75%, 70%)" opacity="0.60"></circle><circle r="16" cx="232" cy="692" fill="hsl(203, 75%, 70%)" opacity="0.87"></circle><circle r="13" cx="638" cy="435" fill="hsl(197, 75%, 70%)" opacity="0.19"></circle><circle r="7.5" cx="373" cy="433" fill="hsl(326, 75%, 70%)" opacity="0.29"></circle><circle r="11.5" cx="534" cy="467" fill="hsl(250, 75%, 70%)" opacity="0.36"></circle><circle r="8.5" cx="26" cy="17" fill="hsl(163, 75%, 70%)" opacity="0.53"></circle><circle r="5.5" cx="311" cy="17" fill="hsl(244, 75%, 70%)" opacity="0.66"></circle><circle r="13" cx="47" cy="250" fill="hsl(227, 75%, 70%)" opacity="0.83"></circle><circle r="13" cx="24" cy="340" fill="hsl(237, 75%, 70%)" opacity="0.84"></circle><circle r="7.5" cx="101" cy="40" fill="hsl(115, 75%, 70%)" opacity="0.19"></circle><circle r="5.5" cx="82" cy="425" fill="hsl(208, 75%, 70%)" opacity="0.77"></circle><circle r="11" cx="531" cy="325" fill="hsl(250, 75%, 70%)" opacity="0.37"></circle><circle r="9.5" cx="723" cy="327" fill="hsl(201, 75%, 70%)" opacity="0.89"></circle><circle r="8" cx="666" cy="144" fill="hsl(243, 75%, 70%)" opacity="0.14"></circle><circle r="11.5" cx="617" cy="640" fill="hsl(199, 75%, 70%)" opacity="0.54"></circle><circle r="9.5" cx="85" cy="367" fill="hsl(208, 75%, 70%)" opacity="0.80"></circle><circle r="8" cx="679" cy="745" fill="hsl(199, 75%, 70%)" opacity="0.78"></circle><circle r="8.5" cx="283" cy="474" fill="hsl(251, 75%, 70%)" opacity="0.39"></circle><circle r="7" cx="383" cy="415" fill="hsl(331, 75%, 70%)" opacity="0.65"></circle><circle r="7" cx="533" cy="364" fill="hsl(250, 75%, 70%)" opacity="0.55"></circle><circle r="7" cx="154" cy="399" fill="hsl(176, 75%, 70%)" opacity="0.35"></circle><circle r="11.5" cx="695" cy="778" fill="hsl(200, 75%, 70%)" opacity="0.48"></circle><circle r="8.5" cx="109" cy="472" fill="hsl(194, 75%, 70%)" opacity="0.76"></circle><circle r="8" cx="622" cy="385" fill="hsl(199, 75%, 70%)" opacity="0.37"></circle><circle r="8" cx="19" cy="50" fill="hsl(230, 75%, 70%)" opacity="0.89"></circle><circle r="7" cx="530" cy="147" fill="hsl(222, 75%, 70%)" opacity="0.21"></circle><circle r="13" cx="736" cy="715" fill="hsl(202, 75%, 70%)" opacity="0.15"></circle><circle r="13.5" cx="725" cy="144" fill="hsl(259, 75%, 70%)" opacity="0.34"></circle><circle r="9" cx="145" cy="54" fill="hsl(114, 75%, 70%)" opacity="0.16"></circle><circle r="15" cx="387" cy="348" fill="hsl(331, 75%, 70%)" opacity="0.18"></circle><circle r="7.5" cx="586" cy="234" fill="hsl(213, 75%, 70%)" opacity="0.23"></circle><circle r="9.5" cx="646" cy="226" fill="hsl(197, 75%, 70%)" opacity="0.78"></circle><circle r="10.5" cx="456" cy="341" fill="hsl(315, 75%, 70%)" opacity="0.46"></circle><circle r="6.5" cx="165" cy="780" fill="hsl(175, 75%, 70%)" opacity="0.96"></circle><circle r="12" cx="210" cy="264" fill="hsl(186, 75%, 70%)" opacity="0.51"></circle><circle r="8" cx="613" cy="508" fill="hsl(199, 75%, 70%)" opacity="0.25"></circle><circle r="10" cx="599" cy="23" fill="hsl(144, 75%, 70%)" opacity="0.87"></circle><circle r="12" cx="581" cy="74" fill="hsl(178, 75%, 70%)" opacity="0.52"></circle><circle r="6.5" cx="593" cy="363" fill="hsl(207, 75%, 70%)" opacity="0.80"></circle><circle r="12.5" cx="364" cy="461" fill="hsl(326, 75%, 70%)" opacity="0.17"></circle><circle r="9.5" cx="15" cy="781" fill="hsl(237, 75%, 70%)" opacity="0.86"></circle><circle r="12.5" cx="331" cy="769" fill="hsl(301, 75%, 70%)" opacity="0.55"></circle><circle r="15" cx="395" cy="209" fill="hsl(334, 75%, 70%)" opacity="0.87"></circle><circle r="10" cx="491" cy="106" fill="hsl(207, 75%, 70%)" opacity="0.97"></circle><circle r="13.5" cx="292" cy="772" fill="hsl(265, 75%, 70%)" opacity="0.49"></circle><circle r="7" cx="188" cy="17" fill="hsl(113, 75%, 70%)" opacity="0.99"></circle><circle r="10" cx="199" cy="613" fill="hsl(180, 75%, 70%)" opacity="0.42"></circle><circle r="9.5" cx="277" cy="154" fill="hsl(253, 75%, 70%)" opacity="0.42"></circle><circle r="8" cx="666" cy="365" fill="hsl(198, 75%, 70%)" opacity="0.99"></circle><circle r="14" cx="109" cy="681" fill="hsl(194, 75%, 70%)" opacity="0.84"></circle><circle r="8" cx="69" cy="26" fill="hsl(133, 75%, 70%)" opacity="0.16"></circle><circle r="6.5" cx="280" cy="25" fill="hsl(224, 75%, 70%)" opacity="0.54"></circle><circle r="10.5" cx="780" cy="426" fill="hsl(202, 75%, 70%)" opacity="0.86"></circle><circle r="9.5" cx="287" cy="504" fill="hsl(251, 75%, 70%)" opacity="0.15"></circle><circle r="9" cx="434" cy="160" fill="hsl(299, 75%, 70%)" opacity="0.58"></circle><circle r="8.5" cx="711" cy="294" fill="hsl(200, 75%, 70%)" opacity="0.63"></circle><circle r="6.5" cx="77" cy="403" fill="hsl(208, 75%, 70%)" opacity="0.52"></circle><circle r="11.5" cx="314" cy="457" fill="hsl(290, 75%, 70%)" opacity="0.22"></circle><circle r="12" cx="463" cy="60" fill="hsl(180, 75%, 70%)" opacity="0.52"></circle><circle r="11.5" cx="172" cy="719" fill="hsl(175, 75%, 70%)" opacity="0.26"></circle><circle r="5" cx="474" cy="593" fill="hsl(306, 75%, 70%)" opacity="0.46"></circle><circle r="10" cx="306" cy="551" fill="hsl(277, 75%, 70%)" opacity="0.92"></circle><circle r="13" cx="419" cy="387" fill="hsl(333, 75%, 70%)" opacity="0.44"></circle><circle r="13.5" cx="167" cy="668" fill="hsl(175, 75%, 70%)" opacity="0.46"></circle><circle r="8.5" cx="543" cy="260" fill="hsl(239, 75%, 70%)" opacity="0.40"></circle><circle r="9.5" cx="782" cy="730" fill="hsl(202, 75%, 70%)" opacity="0.64"></circle><circle r="10.5" cx="683" cy="20" fill="hsl(230, 75%, 70%)" opacity="0.64"></circle><circle r="7" cx="667" cy="302" fill="hsl(198, 75%, 70%)" opacity="0.11"></circle><circle r="12.5" cx="156" cy="478" fill="hsl(176, 75%, 70%)" opacity="0.90"></circle><circle r="7" cx="237" cy="519" fill="hsl(203, 75%, 70%)" opacity="0.90"></circle><circle r="6" cx="105" cy="410" fill="hsl(194, 75%, 70%)" opacity="0.52"></circle><circle r="8.5" cx="752" cy="349" fill="hsl(202, 75%, 70%)" opacity="0.48"></circle><circle r="10.5" cx="507" cy="438" fill="hsl(273, 75%, 70%)" opacity="0.32"></circle></svg> -->
<svg xmlns="http://www.w3.org/2000/svg" version="1.1" xmlns:xlink="http://www.w3.org/1999/xlink" xmlns:svgjs="http://svgjs.dev/svgjs" viewBox="0 0 800 800"><defs><filter id="llleaves-blur-2" x="-100%" y="-100%" width="400%" height="400%"><feGaussianBlur in="SourceGraphic" stdDeviation="2"></feGaussianBlur></filter><filter id="llleaves-blur-3" x="-100%" y="-100%" width="400%" height="400%"><feGaussianBlur in="SourceGraphic" stdDeviation="4"></feGaussianBlur></filter><filter id="llleaves-blur-4" x="-100%" y="-100%" width="400%" height="400%"><feGaussianBlur in="SourceGraphic" stdDeviation="12"></feGaussianBlur></filter></defs><g fill="hsl(50, 98%, 50%)"><path d="M351 102H401C429 102 451 124 451 152H401C373 152 351 130 351 102Z " transform="matrix(0.09164187132097665,-0.5197268787384016,0.5197268787384016,0.09164187132097665,298.24629600051134,323.771960716335)" opacity="0.81"></path><path d="M275 639H325C353 639 375 661 375 689H325C297 689 275 667 275 639Z " transform="matrix(0.08231026681720786,-0.5196865717904537,0.5196865717904537,0.08231026681720786,-46.82272038445393,778.2441186652715)" opacity="0.81"></path><path d="M378 640H428C456 640 478 662 478 690H428C400 690 378 668 378 640Z " transform="matrix(0.008975058367748498,-0.5141807495221491,0.5141807495221491,0.008975058367748498,82.22847658637454,879.100946980927)" opacity="0.79"></path><path d="M140 500H190C218 500 240 522 240 550H190C162 550 140 528 140 500Z " transform="matrix(-0.09459987750530961,-0.48667417973023824,0.48667417973023824,-0.09459987750530961,-47.52996763236624,667.1330298390328)" opacity="0.76"></path><path d="M449 117H499C527 117 549 139 549 167H499C471 167 449 145 449 117Z " transform="matrix(-0.07794264770489095,-0.492110510004538,0.492110510004538,-0.07794264770489095,468.0136887840962,398.63100046635896)" opacity="0.77"></path><path d="M702 268H752C780 268 802 290 802 318H752C724 318 702 296 702 268Z " transform="matrix(-0.16486683038068753,-0.45296789368799334,0.45296789368799334,-0.16486683038068753,743.2602635956949,681.9378373549125)" opacity="0.74"></path><path d="M167 220H217C245 220 267 242 267 270H217C189 270 167 248 167 220Z " transform="matrix(-0.017758910165325537,-0.5085486495227968,0.5085486495227968,-0.017758910165325537,96.25926437279043,359.70598993695165)" opacity="0.78"></path><path d="M710 155H760C788 155 810 177 810 205H760C732 205 710 183 710 155Z " transform="matrix(-0.20052268391977185,-0.43002228338510085,0.43002228338510085,-0.20052268391977185,834.9932287697084,542.9110184782355)" opacity="0.73"></path><path d="M333 545H383C411 545 433 567 433 595H383C355 595 333 573 333 545Z " transform="matrix(0.06376300412025153,-0.519307994843699,0.519307994843699,0.06376300412025153,62.573212361035246,732.5500496765933)" opacity="0.80"></path><path d="M485 650H535C563 650 585 672 585 700H535C507 700 485 678 485 650Z " transform="matrix(-0.1574892067552297,-0.45738186737507486,0.45738186737507486,-0.1574892067552297,310.52396513587234,1026.004513605445)" opacity="0.74"></path><path d="M707 481H757C785 481 807 503 807 531H757C729 531 707 509 707 481Z " transform="matrix(-0.16486683038068753,-0.45296789368799334,0.45296789368799334,-0.16486683038068753,652.6024363920558,932.3193116944387)" opacity="0.74"></path><path d="M200 715H250C278 715 300 737 300 765H250C222 765 200 743 200 715Z " transform="matrix(0.008971100405223108,-0.5139539980009334,0.5139539980009334,0.008971100405223108,-132.56873362199656,861.8498852003684)" opacity="0.79"></path><path d="M90 27H140C168 27 190 49 190 77H140C112 77 90 55 90 27Z " transform="matrix(-0.1497817654262746,-0.4609808736214907,0.4609808736214907,-0.1497817654262746,136.99844173136094,124.32597410917498)" opacity="0.74"></path><path d="M9 321H59C87 321 109 343 109 371H59C31 371 9 349 9 321Z " transform="matrix(-0.37450453192657795,-0.17463433125111638,0.17463433125111638,-0.37450453192657795,20.672288770781833,485.88199359041187)" opacity="0.63"></path><path d="M505 392H555C583 392 605 414 605 442H555C527 442 505 420 505 392Z " transform="matrix(-0.17194806712568222,-0.4479400293643499,0.4479400293643499,-0.17194806712568222,463.64018500981973,737.3090602886236)" opacity="0.74"></path><path d="M-5 24H45C73 24 95 46 95 74H45C17 74 -5 52 -5 24Z " transform="matrix(-0.38272556219949333,-0.1317829793770969,0.1317829793770969,-0.38272556219949333,55.76528430949945,73.68378661974454)" opacity="0.62"></path><path d="M115 612H165C193 612 215 634 215 662H165C137 662 115 640 115 612Z " transform="matrix(-0.17952838103104407,-0.44434833570504834,0.44434833570504834,-0.17952838103104407,-88.42770697399351,824.677054108108)" opacity="0.74"></path><path d="M214 572H264C292 572 314 594 314 622H264C236 622 214 600 214 572Z " transform="matrix(0.03615358707981456,-0.5170203828114011,0.5170203828114011,0.03615358707981456,-54.20571552747742,711.9096895755606)" opacity="0.80"></path><path d="M16 523H66C94 523 116 545 116 573H66C38 573 16 551 16 523Z " transform="matrix(-0.37450453192657795,-0.17463433125111638,0.17463433125111638,-0.37450453192657795,-4.982314418457634,764.7543493583385)" opacity="0.63"></path><path d="M10 121H60C88 121 110 143 110 171H60C32 171 10 149 10 121Z " transform="matrix(-0.3707825555189238,-0.18892314826547238,0.18892314826547238,-0.3707825555189238,54.66417368437646,211.46964200169123)" opacity="0.64"></path><path d="M621 734H671C699 734 721 756 721 784H671C643 784 621 762 621 734Z " transform="matrix(-0.22696641938100973,-0.4094582594063034,0.4094582594063034,-0.22696641938100973,512.5156485152733,1206.014004371816)" opacity="0.72"></path><path d="M460 312H510C538 312 560 334 560 362H510C482 362 460 340 460 312Z " transform="matrix(-0.11077618991965398,-0.47982439408210026,0.47982439408210026,-0.11077618991965398,404.7950360533557,619.0420169847945)" opacity="0.76"></path><path d="M384 389H434C462 389 484 411 484 439H434C406 439 384 417 384 389Z " transform="matrix(-0.00890632278902952,-0.5102428908546599,0.5102428908546599,-0.00890632278902952,226.6247872766096,639.1326322655806)" opacity="0.78"></path><path d="M542 134H592C620 134 642 156 642 184H592C564 184 542 162 542 134Z " transform="matrix(-0.23363839537590272,-0.4046735713899285,0.4046735713899285,-0.23363839537590272,665.9708322115358,435.7152591276062)" opacity="0.72"></path><path d="M434 212H484C512 212 534 234 534 262H484C456 262 434 240 434 212Z " transform="matrix(-0.08630647930159588,-0.4894683669783529,0.4894683669783529,-0.08630647930159588,409.7683330081028,494.357325212001)" opacity="0.76"></path><path d="M442 559H492C520 559 542 581 542 609H492C464 609 442 587 442 559Z " transform="matrix(-0.08630647930159588,-0.4894683669783529,0.4894683669783529,-0.08630647930159588,248.6132615010271,875.2214204654816)" opacity="0.76"></path><path d="M514 27H564C592 27 614 49 614 77H564C536 77 514 55 514 27Z " transform="matrix(-0.2745757889531054,-0.36437437887255714,0.36437437887255714,-0.2745757889531054,699.9132772681785,271.7850907096837)" opacity="0.70"></path><path d="M310 731H360C388 731 410 753 410 781H360C332 781 310 759 310 731Z " transform="matrix(0.07305913527477073,-0.5198427590776757,0.5198427590776757,0.07305913527477073,-59.30241456164032,887.9106870002366)" opacity="0.81"></path><path d="M245 94H295C323 94 345 116 345 144H295C267 144 245 122 245 94Z " transform="matrix(0.1575902033108346,-0.5154543291466915,0.5154543291466915,0.1575902033108346,187.1718248548475,252.30579290428466)" opacity="0.83"></path><path d="M413 20H463C491 20 513 42 513 70H463C435 70 413 48 413 20Z " transform="matrix(-0.03534715611111995,-0.5054878826690199,0.5054878826690199,-0.03534715611111995,456.6187785593427,280.6315117007566)" opacity="0.78"></path><path d="M705 599H755C783 599 805 621 805 649H755C727 649 705 627 705 599Z " transform="matrix(-0.16486683038068753,-0.45296789368799334,0.45296789368799334,-0.16486683038068753,596.8224912761112,1068.867661891984)" opacity="0.74"></path><path d="M242 286H292C320 286 342 308 342 336H292C264 336 242 314 242 286Z " transform="matrix(0.0729297129754878,-0.5189218715679565,0.5189218715679565,0.0729297129754878,109.31982175352309,439.84404576246664)" opacity="0.81"></path><path d="M76 215H126C154 215 176 237 176 265H126C98 265 76 243 76 215Z " transform="matrix(-0.2636181853224998,-0.3764857859093012,0.3764857859093012,-0.2636181853224998,68.85930273240268,350.7055735019719)" opacity="0.71"></path><path d="M248 180H298C326 180 348 202 348 230H298C270 230 248 208 248 180Z " transform="matrix(0.0729297129754878,-0.5189218715679565,0.5189218715679565,0.0729297129754878,169.88796186187355,344.6881265672761)" opacity="0.81"></path><path d="M543 578H593C621 578 643 600 643 628H593C565 628 543 606 543 578Z " transform="matrix(-0.20747478236069908,-0.4253863433049693,0.4253863433049693,-0.20747478236069908,459.52458092699806,980.3613953433485)" opacity="0.73"></path><path d="M190 20H240C268 20 290 42 290 70H240C212 70 190 48 190 20Z " transform="matrix(0.14815359288925994,-0.5166729797489304,0.5166729797489304,0.14815359288925994,181.19285361787576,162.33460345972662)" opacity="0.83"></path></g><g fill="none" stroke-width="3" stroke="hsl(50, 98%, 50%)"><path d="M100 721H150C178 721 200 743 200 771H150C122 771 100 749 100 721Z " transform="matrix(-0.22055006549385064,-0.4147943451081518,0.4147943451081518,-0.22055006549385064,-126.35407162660363,972.7495006246354)" opacity="0.72"></path><path d="M700 371H750C778 371 800 393 800 421H750C722 421 700 399 700 371Z " transform="matrix(-0.16486683038068753,-0.45296789368799334,0.45296789368799334,-0.16486683038068753,694.2748368850703,801.0131850967474)" opacity="0.74"></path><path d="M708 715H758C786 715 808 737 808 765H758C730 765 708 743 708 715Z " transform="matrix(-0.16486683038068753,-0.45296789368799334,0.45296789368799334,-0.16486683038068753,547.7728160994461,1205.3511178972076)" opacity="0.74"></path><path d="M354 288H404C432 288 454 310 454 338H404C376 338 354 316 354 288Z " transform="matrix(0.02709854141593315,-0.5170709727954833,0.5170709727954833,0.02709854141593315,231.20897478297672,513.4148295461882)" opacity="0.80"></path><path d="M0 725H50C78 725 100 747 100 775H50C22 775 0 753 0 725Z " transform="matrix(-0.3831390834895266,-0.11713737308869937,0.11713737308869937,-0.3831390834895266,-18.696075642048214,1043.2111812715798)" opacity="0.61"></path><path d="M304 16H354C382 16 404 38 404 66H354C326 66 304 44 304 16Z " transform="matrix(0.19514048625569952,-0.508358346823755,0.508358346823755,0.19514048625569952,264.0775756457084,212.95809483912564)" opacity="0.84"></path><path d="M621 212H671C699 212 721 234 721 262H671C643 262 621 240 621 212Z " transform="matrix(-0.22696641938100973,-0.4094582594063034,0.4094582594063034,-0.22696641938100973,726.2528599253636,565.537533454929)" opacity="0.72"></path><path d="M-11 221H39C67 221 89 243 89 271H39C11 271 -11 249 -11 221Z " transform="matrix(-0.3831390834895266,-0.11713737308869937,0.11713737308869937,-0.3831390834895266,25.126630476271494,344.8205720888828)" opacity="0.61"></path><path d="M528 239H578C606 239 628 261 628 289H578C550 289 528 267 528 239Z " transform="matrix(-0.1937268656175017,-0.43511766427010923,0.43511766427010923,-0.1937268656175017,575.1030649596071,566.6419024711436)" opacity="0.73"></path><path d="M706 32H756C784 32 806 54 806 82H756C728 82 706 60 706 32Z " transform="matrix(-0.37043032249869273,-0.18874367657751237,0.18874367657751237,-0.37043032249869273,1025.2869342440936,220.80474787502482)" opacity="0.64"></path><path d="M523 485H573C601 485 623 507 623 535H573C545 535 523 513 523 485Z " transform="matrix(-0.1937268656175017,-0.43511766427010923,0.43511766427010923,-0.1937268656175017,462.09548522107275,858.1231230916985)" opacity="0.73"></path><path d="M410 469H460C488 469 510 491 510 519H460C432 519 410 497 410 469Z " transform="matrix(-0.03530127909095815,-0.5048318107148334,0.5048318107148334,-0.03530127909095815,226.85167388871307,743.6614647997567)" opacity="0.78"></path><path d="M191 396H241C269 396 291 418 291 446H241C213 446 191 424 191 396Z " transform="matrix(0.008971100405223108,-0.5139539980009334,0.5139539980009334,0.008971100405223108,22.463331643948237,541.086080247626)" opacity="0.79"></path><path d="M290 372H340C368 372 390 394 390 422H340C312 422 290 400 290 372Z " transform="matrix(0.0822776389135545,-0.5194805673143417,0.5194805673143417,0.0822776389135545,105.79181754559784,540.9591702381949)" opacity="0.81"></path><path d="M338 194H388C416 194 438 216 438 244H388C360 244 338 222 338 194Z " transform="matrix(0.04539001468211941,-0.5188102418397318,0.5188102418397318,0.04539001468211941,256.76923134043636,410.3579606184318)" opacity="0.80"></path><path d="M134 120H184C212 120 234 142 234 170H184C156 170 134 148 134 120Z " transform="matrix(-0.044047918529423156,-0.5034700126190768,0.5034700126190768,-0.044047918529423156,119.10166517964774,244.0254305086765)" opacity="0.78"></path><path d="M608 19H658C686 19 708 41 708 69H658C630 69 608 47 608 19Z " transform="matrix(-0.3777723014716707,-0.1603548282362667,0.1603548282362667,-0.3777723014716707,899.5185619259636,166.135458244217)" opacity="0.63"></path><path d="M611 644H661C689 644 711 666 711 694H661C633 694 611 672 611 644Z " transform="matrix(-0.22674311087111776,-0.4090554001902998,0.4090554001902998,-0.22674311087111776,537.2191335584982,1091.076760698566)" opacity="0.72"></path><path d="M271 471H321C349 471 371 493 371 521H321C293 521 271 499 271 471Z " transform="matrix(0.08231026681720786,-0.5196865717904537,0.5196865717904537,0.08231026681720786,36.81386474361119,621.9934972034006)" opacity="0.81"></path><path d="M595 321H645C673 321 695 343 695 371H645C617 371 595 349 595 321Z " transform="matrix(-0.22689740803035596,-0.40933375963406826,0.40933375963406826,-0.22689740803035596,649.719347346192,688.5267781424772)" opacity="0.72"></path><path d="M420 731H470C498 731 520 753 520 781H470C442 781 420 759 420 731Z " transform="matrix(-0.06112905499094899,-0.4978562006609992,0.4978562006609992,-0.06112905499094899,122.35136814603061,1036.205979883827)" opacity="0.77"></path><path d="M527 729H577C605 729 627 751 627 779H577C549 779 527 757 527 729Z " transform="matrix(-0.1937268656175017,-0.43511766427010923,0.43511766427010923,-0.1937268656175017,360.7016826016361,1151.1329489594493)" opacity="0.73"></path><path d="M-8 424H42C70 424 92 446 92 474H42C14 474 -8 452 -8 424Z " transform="matrix(-0.3831390834895266,-0.11713737308869937,0.11713737308869937,-0.3831390834895266,5.497160989734091,625.9492181565228)" opacity="0.61"></path><path d="M633 107H683C711 107 733 129 733 157H683C655 157 633 135 633 107Z " transform="matrix(-0.3136215522917137,-0.31362155229171357,0.31362155229171357,-0.3136215522917137,855.8054753127342,387.6015651177466)" opacity="0.68"></path><path d="M611 425H661C689 425 711 447 711 475H661C633 475 611 453 611 425Z " transform="matrix(-0.22674311087111776,-0.4090554001902998,0.4090554001902998,-0.22674311087111776,626.8022662001739,822.4200194177913)" opacity="0.72"></path><path d="M625 532H675C703 532 725 554 725 582H675C647 582 625 560 625 532Z " transform="matrix(-0.22696641938100973,-0.4094582594063034,0.4094582594063034,-0.22696641938100973,600.1340825928705,959.8046206944772)" opacity="0.72"></path><path d="M124 314H174C202 314 224 336 224 364H174C146 364 124 342 124 314Z " transform="matrix(-0.13449128561559195,-0.46902685202654903,0.46902685202654903,-0.13449128561559195,38.40138086011288,466.20321807630523)" opacity="0.75"></path><path d="M4 623H54C82 623 104 645 104 673H54C26 673 4 651 4 623Z " transform="matrix(-0.37450453192657795,-0.17463433125111638,0.17463433125111638,-0.37450453192657795,-38.93980192668822,900.1091905759828)" opacity="0.63"></path><path d="M86 414H136C164 414 186 436 186 464H136C108 464 86 442 86 414Z " transform="matrix(-0.22055006549385064,-0.4147943451081518,0.4147943451081518,-0.22055006549385064,-16.09990859531493,592.233509686509)" opacity="0.72"></path></g></svg>